<svg width="44" height="25" viewBox="0 0 44 25" fill="none" xmlns="http://www.w3.org/2000/svg">
<path fill-rule="evenodd" clip-rule="evenodd" d="M1.03843 12.512C1.53269 12.0849 2.00084 11.6086 2.39486 11.0863C2.8571 10.4736 2.93842 9.96496 3.10515 9.23794C3.29949 8.39021 3.6196 7.57178 4.049 6.81601C4.76846 5.55017 5.95387 3.99346 7.18407 3.1867C7.60767 2.90898 8.13673 2.75222 8.62611 2.88096C8.94019 2.9636 9.21332 3.15482 9.51138 3.28426C12.4276 4.54998 14.1274 0.414108 16.8488 0.848043C17.4146 0.938251 17.9017 1.28174 18.4098 1.54712C19.8945 2.32269 21.6366 2.45165 23.3053 2.31884C24.9739 2.18603 26.6142 1.80879 28.2787 1.63093C32.3646 1.19444 35.9178 3.13957 38.9359 5.75517C39.0676 5.86935 39.2067 6.00054 39.2299 6.17362C39.2532 6.34671 39.0807 6.54414 38.9218 6.4729C39.7633 6.85062 39.9346 8.52232 39.9653 9.28264C40.0039 10.2436 40.0815 11.1852 39.9734 12.1435C39.8584 13.1631 39.6433 14.2382 40.0272 15.2286C40.4332 16.2761 41.3746 16.9468 42.2099 17.6324C43.2174 18.4592 43.7813 19.1637 43.85 20.5136C43.8866 21.2352 43.8865 21.9583 43.8864 22.6809C43.8864 22.9838 43.8992 23.3139 43.8152 23.6079C43.6847 24.065 43.5614 23.987 43.1541 24.1232C42.8234 24.2339 42.4774 24.4608 41.0335 22.4687C39.6163 20.5136 38.0374 19.7643 37.1552 19.7201C36.2732 19.6758 35.854 23.2151 35.6555 23.5036C35.221 24.135 34.9873 24.6092 34.1534 24.6599C33.1789 24.7194 32.2017 24.6988 31.2272 24.6478C30.5983 24.615 29.7821 24.8421 29.2187 24.4626C28.5567 24.0168 29.2586 23.5238 29.6687 23.2808C30.6391 22.7055 31.8399 22.9948 31.9944 21.9769C32.1487 20.9591 31.9281 18.7466 31.5973 18.1492C31.2664 17.5517 30.7592 17.3747 30.296 17.3969C29.833 17.4189 27.3627 17.3969 26.4364 16.9986C25.5102 16.6003 24.8705 16.2242 24.5176 16.3348C24.1648 16.4453 24.2303 16.9287 24.3585 18.4085C24.4976 20.0127 24.2951 21.5749 23.7204 23.0852C23.6126 23.3684 23.4852 23.6581 23.2535 23.8526C22.7431 24.2813 21.9065 24.1239 21.2904 24.1122C20.8537 24.1039 20.4167 24.0978 19.9803 24.0842C19.7175 24.0761 19.4415 24.0272 19.2403 23.8574C18.8572 23.5339 19.0241 22.9294 19.437 22.7285C20.1649 22.3745 21.3637 22.8842 21.4299 21.7115C21.485 20.735 20.7762 19.6244 20.3189 18.8104C19.6859 17.6837 18.8854 16.6471 18.1464 15.5873C17.9919 15.3657 17.8328 15.1395 17.6123 14.9837C16.5137 14.2079 15.8194 15.7026 15.5082 16.5397C15.1366 17.5387 14.9345 18.6049 14.3847 19.5271C13.8714 20.3879 13.1724 21.1279 12.3995 21.7588C11.0349 22.8732 9.32643 24.0457 7.56033 24.332C6.43432 24.5146 4.76197 24.3219 3.94029 23.4152C3.57795 23.0153 5.52296 22.9015 5.72194 22.867C6.78077 22.6834 7.50069 22.0451 7.97778 21.0875C9.26807 18.4968 10.3477 15.8359 11.1567 13.0556C11.1891 12.9443 11.2192 12.816 11.1554 12.7194C11.1146 12.6575 11.0435 12.6236 10.9747 12.5964C10.3132 12.3347 9.48399 12.3763 8.80003 12.5118C7.9584 12.6787 7.49756 13.5212 6.71139 13.8062C5.55997 14.2236 3.24821 14.4643 2.17929 13.7308C1.67192 13.3825 0.507276 12.9707 1.03843 12.512Z" fill="white"/>
</svg>
